<svg xmlns="http://www.w3.org/2000/svg" width="680" height="260" viewBox="0 0 680 260">
  <rect width="100%" height="100%" fill="#ffffff"/>
  <g font-family="Arial" font-size="12" fill="#0b1723">
    <defs>
      <style>.box{fill:#f1f5f9;stroke:#334155;stroke-width:1}</style>
    </defs>
    <rect x="40" y="18" width="140" height="36" rx="6" class="box"/>
    <text x="110" y="42" text-anchor="middle">Camera Frames</text>

    <rect x="40" y="68" width="140" height="36" rx="6" class="box"/>
    <text x="110" y="92" text-anchor="middle">Feature Extraction</text>

    <rect x="40" y="118" width="140" height="36" rx="6" class="box"/>
    <text x="110" y="142" text-anchor="middle">Feature Matching</text>

    <rect x="240" y="118" width="160" height="36" rx="6" class="box"/>
    <text x="320" y="142" text-anchor="middle">Pose Estimation</text>

    <rect x="240" y="168" width="160" height="36" rx="6" class="box"/>
    <text x="320" y="192" text-anchor="middle">Triangulation</text>

    <rect x="460" y="118" width="160" height="36" rx="6" class="box"/>
    <text x="540" y="142" text-anchor="middle">Map Manager</text>

    <rect x="460" y="168" width="160" height="36" rx="6" class="box"/>
    <text x="540" y="192" text-anchor="middle">Bundle Adjustment</text>

    <rect x="460" y="218" width="160" height="36" rx="6" class="box"/>
    <text x="540" y="242" text-anchor="middle">Loop Closure</text>

    <line x1="110" y1="54" x2="110" y2="68" stroke="#0b1723" stroke-width="2" marker-end="url(#arrow)"/>
    <line x1="110" y1="104" x2="110" y2="118" stroke="#0b1723" stroke-width="2" marker-end="url(#arrow)"/>
    <line x1="170" y1="136" x2="240" y2="136" stroke="#0b1723" stroke-width="2" marker-end="url(#arrow)"/>
    <line x1="400" y1="154" x2="460" y2="154" stroke="#0b1723" stroke-width="2" marker-end="url(#arrow)"/>
    <line x1="320" y1="204" x2="460" y2="204" stroke="#0b1723" stroke-width="2" marker-end="url(#arrow)"/>
    <line x1="540" y1="204" x2="540" y2="218" stroke="#0b1723" stroke-width="2" marker-end="url(#arrow)"/>

    <defs>
      <marker id="arrow" markerWidth="8" markerHeight="8" refX="6" refY="4" orient="auto">
        <path d="M0,0 L8,4 L0,8 z" fill="#0b1723"/>
      </marker>
    </defs>
  </g>
</svg>